<svg width="284" height="284" viewBox="0 0 284 284" fill="none" xmlns="http://www.w3.org/2000/svg">
<g id="black_on_white">
<path fill-rule="evenodd" clip-rule="evenodd" d="M81.0241 115.75H202.268L217.423 142L202.268 168.25H81.0241L65.8686 142L81.0241 115.75ZM142.363 121.562L160.098 131.801V152.28L142.363 162.519L124.628 152.28V131.801L142.363 121.562Z" fill="black"/>
<path d="M45.0289 178.095L35.5577 194.5H54.5L45.0289 178.095Z" fill="black"/>
<path d="M248.442 194.5L238.971 178.095L229.5 194.5H248.442Z" fill="black"/>
<path d="M111.689 84.135L142 31.635L172.311 84.135H111.689Z" fill="black"/>
<path d="M282 142C282 64.6801 219.32 2 142 2C64.6801 2 2 64.6801 2 142M282 142H259.811L229.5 194.5M282 142C282 167.5 275.182 191.408 263.271 212C239.064 253.846 193.82 282 142 282C91.8531 282 47.8643 255.635 23.1392 216.009M2 142H24.1891L45.0289 178.095M2 142C2 167.5 8.8176 191.408 20.7295 212C21.511 213.351 22.3144 214.688 23.1392 216.009M229.5 194.5L238.971 178.095L248.442 194.5M229.5 194.5H248.442M35.5577 194.5L23.1392 216.009M35.5577 194.5L45.0289 178.095M35.5577 194.5H248.442M35.5577 194.5H54.5L45.0289 178.095M248.442 194.5L260.861 216.009M160.098 131.801L142.363 121.562L124.628 131.801M160.098 131.801V152.28L142.363 162.519M160.098 131.801L142.363 142.041M142.363 162.519L124.628 152.28V131.801M142.363 162.519V142.041M124.628 131.801L142.363 142.041M130.504 220.686H154.007M130.504 220.686H119.518M130.504 220.686V255.558M154.007 220.686H164.993M154.007 220.686V241.028M154.007 249.746V255.558M81.0241 115.75H202.268L217.423 142L202.268 168.25H81.0241L65.8686 142L81.0241 115.75ZM142 31.635L111.689 84.135H172.311L142 31.635Z" stroke="black" stroke-width="4"/>
</g>
</svg>
